# xmcd CD Database Entry
#
# Track frame offsets:
# 150
# 16900
# 32310
# 58864
#
# Disc length: 2820 seconds
#
# Revision: 3
# Processed by: cddbd v1.4PL0 Copyright (c) Steve Scherf et al.
# Submitted via: tcd 2.0b
#
DISCID=250b0204
DTITLE=Guano Apes
DYEAR=1900
DGENRE=
TTITLE0=Lords of the boards
TTITLE1=Crossing the Deadline
TTITLE2=Lords of the boards "live"
TTITLE3=Video
EXTD=
EXTT0=
EXTT1=
EXTT2=
EXTT3=
PLAYORDER=
